<svg xmlns="http://www.w3.org/2000/svg" viewBox="0 0 50 50"><defs><style>.cls-1{fill:#06d6a0;}.cls-2{fill:#00bf8d;}</style></defs><title>enemy1_tile</title><g id="Layer_2" data-name="Layer 2"><rect class="cls-1" x="3" y="3.33" width="44" height="44" rx="6.18" ry="6.18"/><path class="cls-2" d="M40.82,4.33A5.18,5.18,0,0,1,46,9.51V41.15a5.18,5.18,0,0,1-5.18,5.18H9.18A5.18,5.18,0,0,1,4,41.15V9.51A5.18,5.18,0,0,1,9.18,4.33H40.82m0-2H9.18A7.19,7.19,0,0,0,2,9.51V41.15a7.19,7.19,0,0,0,7.18,7.18H40.82A7.19,7.19,0,0,0,48,41.15V9.51a7.19,7.19,0,0,0-7.18-7.18Z"/></g></svg>